<svg width="22" height="32" fill="none" xmlns="http://www.w3.org/2000/svg"><path d="M11 0C4.935 0 0 4.785 0 10.667c0 1.765.455 3.516 1.32 5.069l9.079 15.92A.69.69 0 0011 32a.69.69 0 00.602-.344l9.08-15.926A10.429 10.429 0 0022 10.667C22 4.785 17.065 0 11 0zm8.476 15.09L11 29.956l-8.473-14.86a9.121 9.121 0 01-1.152-4.43c0-5.146 4.318-9.333 9.625-9.333s9.625 4.187 9.625 9.334a9.115 9.115 0 01-1.149 4.424z" fill="#F1CDB3"/><path d="M11 5.333c-3.033 0-5.5 2.393-5.5 5.334C5.5 13.607 7.967 16 11 16s5.5-2.393 5.5-5.333c0-2.941-2.467-5.334-5.5-5.334zm0 9.334c-2.275 0-4.125-1.795-4.125-4 0-2.206 1.85-4 4.125-4s4.125 1.794 4.125 4c0 2.205-1.85 4-4.125 4z" fill="#F1CDB3"/></svg>