<svg width="60" height="53" fill="none" xmlns="http://www.w3.org/2000/svg"><path d="M57.297 6.251c-1.56-1.254-3.758-2.37-6.535-3.315C45.198 1.043 37.825 0 30 0 22.174 0 14.8 1.043 9.238 2.936c-2.778.945-4.976 2.06-6.535 3.315C.909 7.694 0 9.286 0 10.983v13.116c0 1.697.91 3.289 2.703 4.732 1.559 1.254 3.757 2.37 6.535 3.315 5.285 1.798 12.203 2.828 19.59 2.927v4.703h-4.041a5.121 5.121 0 00-5.024-4.16 5.119 5.119 0 00-5.113 5.112c0 1.226.435 2.387 1.204 3.297a5.097 5.097 0 00-1.204 3.296 5.119 5.119 0 005.113 5.113 5.122 5.122 0 005.024-4.16h10.426a5.121 5.121 0 005.024 4.16 5.119 5.119 0 005.113-5.113 5.097 5.097 0 00-1.204-3.296 5.097 5.097 0 001.204-3.297 5.119 5.119 0 00-5.113-5.112 5.121 5.121 0 00-5.024 4.16h-4.041v-4.703c7.387-.099 14.305-1.129 19.59-2.927 2.778-.945 4.976-2.06 6.535-3.315C59.091 27.388 60 25.796 60 24.099V10.983c0-1.697-.91-3.289-2.703-4.732zM36.302 42.12a1.172 1.172 0 001.17-1.236 2.772 2.772 0 012.765-2.923 2.772 2.772 0 012.77 2.769c0 .935-.47 1.801-1.254 2.316a1.172 1.172 0 000 1.96 2.765 2.765 0 011.253 2.316 2.772 2.772 0 01-2.77 2.77 2.772 2.772 0 01-2.764-2.924 1.173 1.173 0 00-1.17-1.236H23.698a1.173 1.173 0 00-1.17 1.236 2.772 2.772 0 01-2.765 2.923 2.772 2.772 0 01-2.77-2.768c0-.936.469-1.802 1.254-2.317a1.171 1.171 0 000-1.96 2.764 2.764 0 01-1.254-2.316 2.772 2.772 0 012.77-2.77 2.772 2.772 0 012.764 2.924 1.171 1.171 0 001.17 1.236h12.605zM30 32.74a2.826 2.826 0 01-2.823-2.823A2.826 2.826 0 0130 27.093a2.826 2.826 0 012.822 2.823A2.826 2.826 0 0130 32.738zm27.656-8.64c0 3.708-9.352 7.8-23.26 8.526a5.135 5.135 0 00.657-3.786c4.548-.299 8.773-.977 12.297-1.983a1.172 1.172 0 00-.644-2.254c-3.616 1.032-8.027 1.705-12.785 1.956a5.155 5.155 0 00-7.858.017c-3.224-.154-6.29-.498-9.113-1.03a1.172 1.172 0 00-.433 2.304c2.632.495 5.46.834 8.425 1.014a5.169 5.169 0 00.661 3.762C11.695 31.9 2.343 27.808 2.343 24.1v-8.685l.017.013a11.158 11.158 0 00.821.652l.003.002c.087.064.176.127.267.19l.04.028c.086.059.173.117.261.175l.054.035c.09.058.18.116.272.173l.04.025c1.384.856 3.098 1.635 5.12 2.323C14.8 20.923 22.174 21.966 30 21.966c7.825 0 15.198-1.043 20.762-2.936 2.022-.688 3.735-1.467 5.12-2.323l.04-.024.272-.174.053-.035c.089-.058.175-.116.26-.175l.041-.028c.091-.063.18-.126.268-.19l.002-.002a12.599 12.599 0 00.822-.652l.016-.013v8.685zM7.529 15.854c1.021-.466 2.417-1.002 4.273-1.523C16.845 12.917 23.308 12.14 30 12.14s13.154.778 18.197 2.192c1.856.52 3.253 1.056 4.273 1.523-4.85 2.162-12.788 3.768-22.47 3.768-9.682 0-17.621-1.607-22.47-3.768zm50.12-4.7a2.297 2.297 0 01-.025.205l-.002.01a2.48 2.48 0 01-.092.366l-.01.03a2.992 2.992 0 01-.086.22c-.012.028-.026.056-.04.085a3.2 3.2 0 01-.085.169l-.008.015c-.488.88-1.409 1.65-2.323 2.25-1.213-.698-3.16-1.592-6.148-2.43C43.587 10.605 36.9 9.796 30 9.796c-6.9 0-13.587.81-18.83 2.28-2.988.837-4.935 1.73-6.149 2.43-.913-.601-1.834-1.371-2.322-2.251l-.008-.015a3.343 3.343 0 01-.086-.17l-.04-.085a2.97 2.97 0 01-.086-.22l-.01-.028a2.601 2.601 0 01-.092-.366l-.001-.01a2.318 2.318 0 01-.032-.377c0-4.086 11.358-8.64 27.656-8.64s27.656 4.554 27.656 8.64c0 .057-.003.114-.008.172z" fill="#F1CDB3"/><path d="M48.176 7.643a1.183 1.183 0 00-.498-.745 1.183 1.183 0 00-.88-.175 1.211 1.211 0 00-.42.175 1.189 1.189 0 00-.18.145 1.185 1.185 0 00-.32 1.058 1.185 1.185 0 00.32.6 1.278 1.278 0 00.381.254 1.213 1.213 0 00.45.09 1.153 1.153 0 00.447-.09 1.244 1.244 0 00.38-.254 1.183 1.183 0 00.32-1.058zM43.483 5.86C39.446 5.1 34.85 4.7 30.193 4.7c-6.444 0-12.675.764-17.543 2.154a1.172 1.172 0 00.643 2.253c4.665-1.33 10.667-2.064 16.9-2.064 4.514 0 8.96.388 12.857 1.121a1.172 1.172 0 00.433-2.303zM14.121 25.61a1.22 1.22 0 00-.175-.423 1.202 1.202 0 00-.325-.325 1.181 1.181 0 00-1.478.147 1.124 1.124 0 00-.253.38 1.22 1.22 0 00-.09.449 1.184 1.184 0 00.521.973c.063.044.131.08.203.108a1.149 1.149 0 001.098-.108 1.156 1.156 0 00.432-.526 1.154 1.154 0 00.067-.676z" fill="#F1CDB3"/></svg>