<svg width="32" height="60" fill="none" xmlns="http://www.w3.org/2000/svg"><path d="M24.13 17.181V11.74c0-.72-.584-1.304-1.304-1.304h-.978v-9.13C21.848.583 21.264 0 20.543 0h-8.478c-.72 0-1.304.584-1.304 1.304v9.13h-.978c-.72 0-1.305.585-1.305 1.305v5.442C3.898 19.008.652 23.488.652 28.712v29.984c0 .72.584 1.304 1.304 1.304h28.696c.72 0 1.304-.584 1.304-1.304V28.712c0-5.224-3.245-9.704-7.826-11.53zM13.37 2.61h5.869v7.826h-5.87V2.609zm-2.283 10.434H21.52v3.261H11.087v-3.26zm18.26 44.348H3.262v-28.68c0-5.403 4.396-9.799 9.799-9.799h6.489c5.403 0 9.799 4.396 9.799 9.8V57.39z" fill="#F1CDB3"/><path d="M24.782 27.391H7.826c-.72 0-1.304.584-1.304 1.305v24.13c0 .72.584 1.304 1.304 1.304h16.956c.72 0 1.305-.584 1.305-1.304v-8.197a1.304 1.304 0 00-2.609 0v6.893H9.13V30h14.348v4.129a1.304 1.304 0 102.609 0v-5.433c0-.72-.584-1.305-1.305-1.305z" fill="#F1CDB3"/><path d="M24.782 38.065c-.72 0-1.304.583-1.304 1.304v.13a1.304 1.304 0 002.609 0v-.13c0-.72-.584-1.304-1.305-1.304zm-9.79 3.086a3.917 3.917 0 00-3.913 3.913 3.917 3.917 0 003.913 3.913 3.917 3.917 0 003.913-3.913 3.917 3.917 0 00-3.913-3.913zm0 5.218a1.306 1.306 0 010-2.609 1.306 1.306 0 010 2.609zm6.854-10.385a3.917 3.917 0 00-3.913-3.913 3.917 3.917 0 00-3.913 3.913 3.917 3.917 0 003.913 3.913 3.917 3.917 0 003.913-3.913zm-3.913 1.305a1.306 1.306 0 010-2.609 1.306 1.306 0 010 2.609z" fill="#F1CDB3"/></svg>