<svg width="57" height="60" fill="none" xmlns="http://www.w3.org/2000/svg"><path d="M55.953 19.966L28.98.226a1.172 1.172 0 00-1.384 0L.624 19.966a1.172 1.172 0 00-.254 1.638l3.526 4.817a1.172 1.172 0 001.638.253l1.063-.778v32.932c0 .647.525 1.172 1.172 1.172h41.1c.647 0 1.172-.525 1.172-1.172V25.941l1.002.733a1.172 1.172 0 001.638-.253l3.525-4.817a1.172 1.172 0 00-.253-1.638zm-8.256 33.12H19.972a1.172 1.172 0 000 2.343h27.725v2.227H8.941V25.105h27.443a1.172 1.172 0 000-2.344H10.881l17.407-12.74 19.41 14.205v28.86zm3.784-28.995l-22.5-16.468a1.17 1.17 0 00-1.385 0L5.095 24.091l-2.141-2.926L28.288 2.624l25.335 18.541-2.142 2.926z" fill="#F1CDB3"/><path d="M41.755 23.705a1.223 1.223 0 00-.175-.422 1.181 1.181 0 00-.974-.522 1.18 1.18 0 00-1.082.723 1.149 1.149 0 00.108 1.1 1.124 1.124 0 00.324.323 1.166 1.166 0 00.878.175 1.164 1.164 0 00.921-.92 1.155 1.155 0 000-.457zM16.899 54.028a1.174 1.174 0 00-1.977-.6 1.184 1.184 0 00-.321.6 1.158 1.158 0 00.32 1.058 1.186 1.186 0 00.829.343 1.182 1.182 0 00.974-.52 1.183 1.183 0 00.175-.88zm25.946-23.454c0-.994-.39-1.926-1.098-2.626a3.726 3.726 0 00-2.637-1.072 3.721 3.721 0 00-.913.124 40.49 40.49 0 00-6.338 2.197 15.473 15.473 0 00-3.57-.416 15.403 15.403 0 00-3.57.415 40.487 40.487 0 00-6.37-2.205 3.668 3.668 0 00-3.263.726 3.665 3.665 0 00-1.348 3.058 40.297 40.297 0 00.96 6.87 12.76 12.76 0 00-.752 2.883 9.11 9.11 0 00-.087 1.243c0 5.246 4.575 9.514 10.198 9.514h8.463c3.083 0 5.966-1.281 7.912-3.516 1.783-2.048 2.564-4.62 2.2-7.242a12.841 12.841 0 00-.753-2.882c.516-2.257.837-4.555.96-6.867.004-.069.006-.136.006-.204zm-2.346.073v.004a38.15 38.15 0 01-.987 6.819c-.058.243-.036.5.062.73a10.494 10.494 0 01.736 2.65c.27 1.94-.315 3.85-1.647 5.38-1.5 1.723-3.74 2.711-6.143 2.711h-8.464c-4.33 0-7.854-3.216-7.854-7.17 0-.303.022-.614.064-.921.128-.912.375-1.803.736-2.65.099-.23.12-.486.062-.73a37.937 37.937 0 01-.987-6.819 1.345 1.345 0 01.495-1.122 1.346 1.346 0 011.175-.272l.023.006a38.098 38.098 0 016.352 2.235c.248.113.526.137.79.067a13.001 13.001 0 013.376-.44c1.148 0 2.283.148 3.376.44.262.07.54.046.788-.066a38.15 38.15 0 016.375-2.242c.1-.024.203-.036.306-.037h.015a1.364 1.364 0 011.249.834 1.337 1.337 0 01.102.593z" fill="#F1CDB3"/><path d="M30.486 43.566c-.566 0-1.026-.46-1.026-1.026a1.172 1.172 0 00-2.344 0v.043c0 .566-.46 1.026-1.025 1.026a1.172 1.172 0 000 2.344c.85 0 1.628-.317 2.222-.84a3.354 3.354 0 002.173.797 1.172 1.172 0 000-2.344zm-6.294-5.4l-1.74-.797a1.17 1.17 0 00-.977 0l-1.74.797a1.172 1.172 0 10.975 2.131l1.253-.574 1.253.574a1.172 1.172 0 10.976-2.13zm12.65 0l-1.74-.797a1.17 1.17 0 00-.976 0l-1.741.797a1.172 1.172 0 10.976 2.13l1.253-.573 1.252.574a1.172 1.172 0 00.976-2.13z" fill="#F1CDB3"/></svg>