<svg width="61" height="60" fill="none" xmlns="http://www.w3.org/2000/svg"><path d="M56.004 12.711h-7.023v-.202a6.596 6.596 0 00-6.588-6.588 6.596 6.596 0 00-6.588 6.588v.202h-8.248a4.93 4.93 0 00-4.925 4.926V23.2h-7.386a4.288 4.288 0 00-4.017 2.761L6.97 38.869a2.35 2.35 0 01-.15.08c-.244.122-.7.308-1.484.5A5.7 5.7 0 00.977 45v6.1a3.707 3.707 0 003.703 3.703h5.224A6.377 6.377 0 0016.164 60c3.11 0 5.707-2.244 6.259-5.198h18.424C41.4 57.756 43.995 60 47.107 60c3.111 0 5.707-2.243 6.259-5.197h3.318c2.54 0 4.245-1.707 4.245-4.246V20.08c0-6.65-3.444-7.368-4.925-7.368zM38.15 12.51a4.25 4.25 0 014.244-4.244 4.25 4.25 0 014.245 4.244v.202h-8.49v-.202zM13.44 26.738a1.953 1.953 0 011.805-1.193h7.386v13.282H9.45l3.991-12.09zm2.722 30.918a4.03 4.03 0 01-4.025-4.025l.002-.082c0-.042 0-.084.003-.126l.002-.02a4.03 4.03 0 014.018-3.798 4.032 4.032 0 013.942 3.208l.002.007c.012.062.024.124.033.188l.002.01.018.138.008.063.008.11c.002.031.006.063.007.094.002.033.002.067.003.1 0 .036.003.071.003.108a4.03 4.03 0 01-4.026 4.025zm30.944 0a4.03 4.03 0 01-4.022-4.182l.001-.05c.002-.039.006-.077.01-.115l.006-.09.005-.037a3.95 3.95 0 01.056-.362l.002-.01a4.032 4.032 0 013.942-3.205 4.031 4.031 0 014.025 4.026 4.03 4.03 0 01-4.025 4.025zm9.577-5.197h-3.316c-.004-.021-.01-.042-.013-.062a6.95 6.95 0 00-.146-.588l-.033-.11a6.235 6.235 0 00-.062-.182l-.035-.098a6.2 6.2 0 00-.082-.208l-.026-.066a6.49 6.49 0 00-.123-.27l-.017-.033a6.503 6.503 0 00-.116-.227l-.046-.082a6.252 6.252 0 00-.1-.172l-.056-.092a5.754 5.754 0 00-.336-.487 6.54 6.54 0 00-.113-.143l-.068-.085a6.36 6.36 0 00-.128-.147l-.064-.072a6.239 6.239 0 00-.164-.173l-.036-.037a6.31 6.31 0 00-.212-.202l-.047-.041c-.056-.05-.113-.1-.172-.15-.025-.02-.052-.04-.078-.062a4.298 4.298 0 00-.15-.117l-.09-.067a6.144 6.144 0 00-.648-.416c-.033-.018-.065-.037-.098-.054a6.335 6.335 0 00-.174-.09c-.03-.014-.058-.03-.087-.043a6.526 6.526 0 00-.232-.105l-.036-.016a6.29 6.29 0 00-.274-.109l-.08-.028a6.818 6.818 0 00-.2-.068l-.107-.031a6.371 6.371 0 00-.18-.051l-.116-.03a6.171 6.171 0 00-.474-.097l-.123-.02a6.417 6.417 0 00-.185-.023c-.04-.004-.078-.01-.118-.013a6.458 6.458 0 00-.206-.016l-.1-.007a6.546 6.546 0 00-.62 0l-.101.007-.206.016-.118.013a6.572 6.572 0 00-.607.1 6.204 6.204 0 00-.47.12c-.036.011-.073.021-.108.033a6.19 6.19 0 00-.196.066l-.084.03c-.092.033-.184.07-.274.107l-.044.02c-.075.033-.15.066-.223.101l-.092.046a6.855 6.855 0 00-.169.087l-.102.056a6.755 6.755 0 00-.501.312 5.988 5.988 0 00-.14.1l-.096.07a6.435 6.435 0 00-.143.113l-.085.068a7.036 7.036 0 00-.16.139l-.059.051c-.07.065-.14.132-.209.2l-.05.052c-.05.052-.1.103-.15.157l-.072.081c-.04.045-.08.09-.119.137l-.074.092a6.34 6.34 0 00-.441.62l-.063.1a5.847 5.847 0 00-.091.16l-.053.094c-.036.067-.07.135-.104.203l-.03.057a6.332 6.332 0 00-.12.266l-.033.083a6.19 6.19 0 00-.075.19c-.014.036-.026.073-.038.109l-.059.171-.036.119a6.254 6.254 0 00-.145.585c-.003.02-.008.04-.012.059h-18.42l-.014-.061-.025-.12a6.233 6.233 0 00-.12-.466c-.011-.038-.022-.076-.035-.114a6.363 6.363 0 00-.06-.176l-.036-.105a5.884 5.884 0 00-.077-.194c-.01-.026-.02-.053-.032-.08a6.369 6.369 0 00-.12-.266l-.027-.052c-.035-.07-.07-.14-.107-.208l-.052-.092a5.988 5.988 0 00-.093-.162l-.062-.1a6.288 6.288 0 00-.44-.62l-.076-.091a6.997 6.997 0 00-.118-.137l-.073-.082a6.02 6.02 0 00-.148-.155c-.017-.018-.034-.037-.052-.054a6.308 6.308 0 00-.208-.199l-.06-.053a6.257 6.257 0 00-.159-.137l-.086-.07a6.107 6.107 0 00-.141-.11 6.842 6.842 0 00-.586-.395c-.05-.03-.1-.06-.151-.088l-.104-.057a5.85 5.85 0 00-.167-.086l-.093-.047a6.497 6.497 0 00-.22-.1l-.047-.02a6.336 6.336 0 00-.273-.108l-.086-.03a6.538 6.538 0 00-.194-.066l-.11-.033a6.377 6.377 0 00-.768-.177l-.123-.02a6.409 6.409 0 00-.185-.023c-.04-.004-.078-.01-.118-.013a6.733 6.733 0 00-.206-.016l-.1-.007a6.415 6.415 0 00-.62 0l-.101.007-.206.016-.118.013a6.375 6.375 0 00-.185.024l-.123.02a6.17 6.17 0 00-.472.096l-.12.03a6.189 6.189 0 00-.175.05l-.11.033c-.065.02-.129.043-.192.065l-.089.03c-.091.035-.182.07-.271.108l-.054.024a6.486 6.486 0 00-.213.097 6.266 6.266 0 00-.26.133 5.857 5.857 0 00-.743.467c-.034.024-.068.048-.1.073a6.425 6.425 0 00-.137.108c-.03.024-.061.048-.09.073a3.104 3.104 0 00-.15.13l-.07.06c-.07.064-.139.13-.206.197l-.061.063a6.775 6.775 0 00-.139.145l-.077.088a5.858 5.858 0 00-.114.13l-.078.098a5.853 5.853 0 00-.436.612l-.066.106c-.03.05-.059.102-.088.153l-.056.1a6.747 6.747 0 00-.098.192l-.035.068a6.436 6.436 0 00-.12.264l-.036.091c-.025.06-.05.121-.072.182l-.04.113c-.02.056-.039.111-.056.167l-.037.121a6.478 6.478 0 00-.118.458c-.01.042-.019.084-.027.127l-.012.057H4.68c-.75 0-1.36-.61-1.36-1.36V45a3.363 3.363 0 012.571-3.275 10.459 10.459 0 001.71-.555h42.562a1.172 1.172 0 000-2.343H24.976v-21.19a2.584 2.584 0 012.581-2.582h28.447c2.246 0 2.582 3.148 2.582 5.025v30.477c0 1.655-1.192 1.902-1.902 1.902z" fill="#F1CDB3"/><path d="M51.437 24.815a3.238 3.238 0 00-2.522-3.154 3.496 3.496 0 00-.987-2.797 3.681 3.681 0 00-2.625-1.108 3.623 3.623 0 00-2.908 1.468 3.625 3.625 0 00-2.912-1.468 3.67 3.67 0 00-2.606 1.094 3.53 3.53 0 00-1.007 2.812 3.238 3.238 0 00-2.52 3.153c0 1.301.773 2.425 1.884 2.937a5.557 5.557 0 00-1.24 3.49c0 3.06 2.49 5.55 5.55 5.55a5.551 5.551 0 002.85-.787 5.55 5.55 0 002.848.788c3.06 0 5.55-2.49 5.55-5.55a5.556 5.556 0 00-1.24-3.491 3.236 3.236 0 001.885-2.937zM45.303 20.1c.354 0 .699.145.945.398.228.235.349.538.34.853-.02.718-.602 1.31-1.298 1.317-.187 0-.37-.04-.54-.117l-.063-.03a1.277 1.277 0 01-.668-1.132c.003-.711.58-1.29 1.284-1.29zm-6.753.391a1.296 1.296 0 01.933-.392 1.287 1.287 0 011.185 1.79 1.29 1.29 0 01-.57.633l-.114.054a1.222 1.222 0 01-.482.092 1.34 1.34 0 01-1.304-1.307 1.203 1.203 0 01.352-.87zm-2.857 4.324a.89.89 0 011.778 0c0 .1-.018.197-.049.287a5.4 5.4 0 00-.084.179.889.889 0 01-1.645-.466zm9.549 9.634a3.205 3.205 0 01-2.086-.772 1.169 1.169 0 00-1.526 0 3.205 3.205 0 01-5.292-2.434c0-1.34.845-2.551 2.103-3.012a1.172 1.172 0 00.762-.982c.033-.322.115-.637.242-.935.041-.08.08-.16.116-.243a3.193 3.193 0 012.832-1.697 3.217 3.217 0 011.441.338c.594.297 1.08.772 1.392 1.359.035.083.074.164.116.243.127.298.208.613.241.936a1.171 1.171 0 00.762.98 3.219 3.219 0 012.103 3.013 3.21 3.21 0 01-3.206 3.206zm2.963-8.745a.889.889 0 01-.756-.423 5.602 5.602 0 00-.085-.179.887.887 0 01.84-1.176.89.89 0 010 1.778zm7.815 14.072a1.172 1.172 0 00-2.32.228 1.18 1.18 0 00.722 1.082 1.15 1.15 0 001.1-.107 1.192 1.192 0 00.43-.526 1.238 1.238 0 00.09-.449 1.15 1.15 0 00-.023-.228zM42.393 0c-.647 0-1.172.525-1.172 1.172v1.962a1.172 1.172 0 002.344 0V1.172C43.565.525 43.04 0 42.393 0zm-4.937 4.557L35.82 3.272a1.171 1.171 0 10-1.447 1.844L36.01 6.4a1.167 1.167 0 001.236.133 1.17 1.17 0 00.211-1.976zM50.611 3.47a1.172 1.172 0 00-1.645-.198L47.33 4.556A1.172 1.172 0 1048.778 6.4l1.635-1.284c.51-.4.598-1.137.198-1.646z" fill="#F1CDB3"/></svg>