<svg width="60" height="55" fill="none" xmlns="http://www.w3.org/2000/svg"><path d="M54.31 32.399c-3.274-1.115-7.605-1.729-12.194-1.729-.287 0-.573.002-.857.007-4.27.072-8.268.677-11.338 1.722a18.44 18.44 0 00-1.456.56V14.232C28.465 6.386 22.081 0 14.233 0 6.385 0 0 6.385 0 14.232v25.694C0 47.774 6.385 54.16 14.232 54.16c2.49 0 4.94-.653 7.087-1.887a14.31 14.31 0 003.598-2.946c.747 1.05 2.228 2.16 5.004 3.104 3.275 1.115 7.606 1.729 12.195 1.729s8.92-.614 12.195-1.729C59.013 50.83 60 48.757 60 47.3v-9.77c0-1.457-.987-3.53-5.69-5.13zm-27.735 5.13c0-.043.005-.086.012-.13l.002-.01c.04-.213.167-.459.402-.725l.004-.005a4.21 4.21 0 01.115-.122c.027-.027.054-.055.083-.082l.034-.032a5.35 5.35 0 01.706-.54l.013-.01c.641-.416 1.532-.848 2.73-1.256 3.038-1.034 7.1-1.603 11.44-1.603 3.953 0 7.674.474 10.603 1.34l-25.08 4.622c-.752-.555-1.062-1.068-1.064-1.444v-.002zm-.454-3.239c-.903.693-1.407 1.396-1.662 2.048a3.304 3.304 0 00-.221 1l-.002.03a3.18 3.18 0 00-.005.162v8.83a11.808 11.808 0 01-9.999 5.455c-6.555 0-11.888-5.333-11.888-11.889V28.251h2.344v6.328a1.172 1.172 0 002.343 0v-6.328h19.09v6.04zm0-8.383H7.031V14.232c0-3.97 3.23-7.2 7.202-7.2 3.97 0 7.2 3.23 7.2 7.2a1.172 1.172 0 002.345 0c0-5.263-4.282-9.544-9.545-9.544-5.264 0-9.546 4.281-9.546 9.544v11.675H2.345V14.232c0-6.555 5.333-11.888 11.889-11.888 6.555 0 11.888 5.333 11.888 11.889v11.674zM57.656 47.3c0 .7-1.074 1.882-4.1 2.913-3.039 1.033-7.101 1.603-11.44 1.603-4.34 0-8.402-.57-11.44-1.603-3.027-1.03-4.1-2.213-4.1-2.913v-6.206c.82.546 1.908 1.08 3.345 1.568 3.275 1.115 7.606 1.729 12.195 1.729s8.92-.614 12.195-1.729c1.436-.489 2.525-1.022 3.345-1.568V47.3zm-4.1-6.857c-3.039 1.034-7.101 1.604-11.44 1.604-4.01 0-7.783-.488-10.73-1.377l25.139-4.633c.803.574 1.131 1.108 1.131 1.494 0 .7-1.074 1.882-4.1 2.912z" fill="#F1CDB3"/><path d="M6.688 38.402a1.122 1.122 0 00-.381-.253 1.18 1.18 0 00-.676-.067 1.22 1.22 0 00-.422.175 1.118 1.118 0 00-.323.323 1.08 1.08 0 00-.108.203 1.146 1.146 0 000 .897 1.16 1.16 0 00.253.38 1.185 1.185 0 00.828.342 1.155 1.155 0 00.65-.197 1.186 1.186 0 00.324-.323 1.245 1.245 0 00.176-.422 1.18 1.18 0 00-.321-1.058z" fill="#F1CDB3"/></svg>